/* XPM */
static char *_caf07baaf5744f38258959d03bf9115HkVRRo0W5PH3QNi4[] = {
/* columns rows colors chars-per-pixel */
"64 64 163 2 ",
"   c #5F262C",
".  c #692D35",
"X  c #67343B",
"o  c #693539",
"O  c #70373D",
"+  c #713A3F",
"@  c #6F3B42",
"#  c #743D43",
"$  c #783D44",
"%  c #754146",
"&  c #794146",
"*  c #764449",
"=  c #7C454A",
"-  c #7D494D",
";  c #7F4C52",
":  c #803F45",
">  c #83454B",
",  c #8B464E",
"<  c #82494E",
"1  c #844D53",
"2  c #8B4D53",
"3  c #874F58",
"4  c #8B4F59",
"5  c #914E55",
"6  c #855156",
"7  c #8B5156",
"8  c #865359",
"9  c #8B555B",
"0  c #8D595E",
"q  c #935056",
"w  c #93555B",
"e  c #9A555C",
"r  c #92595F",
"t  c #9B585E",
"y  c #8F5760",
"u  c #8E5B61",
"i  c #935D63",
"p  c #9B5D63",
"a  c #985F68",
"s  c #A25D64",
"d  c #946166",
"f  c #9B6166",
"g  c #96636A",
"h  c #9B646B",
"j  c #97686E",
"k  c #9C696E",
"l  c #9F6770",
"z  c #9E6A71",
"x  c #A36166",
"c  c #A2656C",
"v  c #A9656B",
"b  c #A4696E",
"n  c #A96A6E",
"m  c #A26770",
"M  c #A36C73",
"N  c #AA6D73",
"B  c #A76F78",
"V  c #AA6F79",
"C  c #B16E74",
"Z  c #A47176",
"A  c #AC7176",
"S  c #A67379",
"D  c #AC747B",
"F  c #AD797E",
"G  c #B27275",
"H  c #B57178",
"J  c #B17479",
"K  c #B27479",
"L  c #B27678",
"P  c #B0757B",
"I  c #B3767B",
"U  c #B57478",
"Y  c #B67579",
"T  c #B77778",
"R  c #B6757B",
"E  c #B4767B",
"W  c #B1757D",
"Q  c #B2757C",
"!  c #B1767C",
"~  c #B3767E",
"^  c #B5777C",
"/  c #B4777C",
"(  c #B1757C",
")  c #B87378",
"_  c #B9777B",
"`  c #B9777D",
"'  c #BC777C",
"]  c #B4797B",
"[  c #B1787F",
"{  c #B2797F",
"}  c #B5787D",
"|  c #B67A7C",
" . c #B4797F",
".. c #B6797E",
"X. c #B2797E",
"o. c #BA787C",
"O. c #BE797E",
"+. c #B87C7E",
"@. c #BA7C7F",
"#. c #AF7780",
"$. c #AE7A81",
"%. c #B07780",
"&. c #B57880",
"*. c #B67981",
"=. c #B67B81",
"-. c #B77B83",
";. c #B77E85",
":. c #B47C83",
">. c #B87B80",
",. c #BA7C81",
"<. c #B97C83",
"1. c #B97E82",
"2. c #BB7C84",
"3. c #B97E84",
"4. c #B97E85",
"5. c #B77F88",
"6. c #B87F88",
"7. c #B78083",
"8. c #B58086",
"9. c #B98086",
"0. c #BA8187",
"q. c #BC8187",
"w. c #BB8487",
"e. c #B98187",
"r. c #B68289",
"t. c #BB8288",
"y. c #BC8088",
"u. c #BE8188",
"i. c #BC8389",
"p. c #BD848A",
"a. c #BF848A",
"s. c #BB848B",
"d. c #BD888E",
"f. c #BF8790",
"g. c #BE8A91",
"h. c #BE9093",
"j. c #C28185",
"k. c #C08287",
"l. c #C08486",
"z. c #C0858B",
"x. c #C1868C",
"c. c #C0878D",
"v. c #C1868E",
"b. c #C2898F",
"n. c #C38B8E",
"m. c #C4898F",
"M. c #C1898F",
"N. c #C18790",
"B. c #C38A90",
"V. c #C58C92",
"C. c #C28C93",
"Z. c #C98D95",
"A. c #C78F98",
"S. c #C59196",
"D. c #C99197",
"F. c #C69299",
"G. c #CA959B",
"H. c #C6989B",
"J. c #CC999E",
"K. c #CE9BA1",
"L. c #D39EA4",
"P. c #D5A0A7",
"I. c #DAA4AA",
/* pixels */
"M A A M b ~ V A A h i w h M P  .D [ D M N M A a.*.m.t.b.a.V.[ [ w.7.<.P U o.O.' _ U j.l.+.f c n n G G G G G n n c x b ] P A  .<.",
"D M A A A N ~ A V f i M A M A 3.u.;.A V M b N *.q.*.x.9.x.u.9.C.b.M c A C G C ) _ U U G  .w > A N G n G G n N n G b P A b  .N n ",
"M b b b N m N b M h c M h N N N A ~ *.A M A P A N <.u.q.a.a.z.9.D f A  .U H H H H ` H A J 2 p n v G G G N G U P N c J b A b v n ",
"c M c p p x x N V c 1 w f c V M c b c M M i i F D M M h f h M F F # = ~ 3.<.U ` / N N N c c w M j.+.U A G P b N / w f A A n b c ",
"N A *.*.A M N V M f 7 h i 9 f M A z i i g 8 - 0 0 - - 6 * = 9 k Z k i 8 i f f f i i i k M M 6 - r b h i h <   & 7 d - = 9 i 9 7 ",
"9.~ M A A *.u.t.F %.:.%.D k 9 i g M D S Z F F Z S F d 0 d k z z j D F F M M M Z D M 8.:.:.F F s.F M M M 0 b :.D Z D 8.:.F 8.9.s.",
"D F f M ;.B.d.t.8.s.C.G.J.J.G.C.t.g.C.S.S.C.C.V.S.d.M 6 8.C.d.d.d.s.s.C.C.d.b.C.9.d.b.8.8.8.:.8.V.D M 9.b.b.b.a.C.C.a.d.t.a.9.d.",
"h M M M ;.F M M A A F F $.:.8.8.d.3.;.:.[ ~ ~ D D 9.D D t.:.F :.%.%.:.%.~ ;.<.:.a.9.A A %.F ~ A A M M A A A P 9.x.z.x.[ ~ ~ <.~ ",
"h p p M V V V F A F F S A S F F A ~ A ~ *.*.~ ~ A A A *.3.~ P D A %.[ *.~ P N c M [ [  .~ A A A A / N J / <./ b p h c N N A J U ",
"A M p c D A ~ V D V #.t.d.d.t.s.d.3.3.3.~ ~ [ ~ V M b A P D [ [ 9.~ ~ ~  .~ [ D D [ [ *.*.:.*. .:.A c  .~  .V V N b A N b P P P ",
"m A h a D D F %.A M g h S A $.B k %.$.:.r.F M d M M i g D D F Z 6 j F 8.F g i Z D Z Z z M g h i i i k D F D ~ F :.9.;.D A A A A ",
"A h i i B ;.t.$.D $.:.$.$.;.r.:.$.r.s.r.8.r.D z $.:.F 8.8.S j 0 z 8.Z D $.F d d S j u g 9 0 i 9 1 0 k h h f h i 0 i 6 & # o + = ",
"C.g.r.s.A h z Z D d 0 F g.d.g.g.S.g.r.8.F k :.d.d.d.8.8.S Z r.8.r.$.M d.d.:.F D s.8.g.C.Z Z :.s.g.F.d.s.%.D D M d i k M F :.%.:.",
"C.S.s.C.:.D s.s.F.$.r.K.F.r.$.8.$.r.s.S.d.8 F 8.d.d.d.d.g.C.S.G.F k S.J.G.J.V.S.S.C.S.S.:.M G.C.C.S.8.s.C.C.C.S.k F G.G.J.G.D.D.",
"#.C.d.d.f.t.d.C.d.:.5.:.$.$.:.D $.$.d.C.t.u ;.g.8.C.S.S.C.s.s.C.:.M %.:.u.3.a.t.a.9.C.V.A M d.d.C.g.;.t.C.C.d.;.9 A C.C.V.s.N.N.",
";.:.C.C.C.N.s.t.;.D r.s.$.$.F $.:.s.t.f.t.f A a.b.t.d.C.d.C.d.8.$.M :.[ %.9.:.:.9.u.3.b.M h b.r.g.g.t.C.d.V.d.d.i h ;.;.5.d.C.C.",
"g.D ;.g.g.f.C.r.s.j g $.r.r.r.%.;.g.s.r.M 1 8.g.8.s.t.t.8.s.s.8.Z i :.F ;.a.t.t.:.d.9.:.i g d.s.8.d.d.d.;.a.d.C.9 g %.8.:.8.;.;.",
"S M j z S $.d 8 u 8 d z h z S F D k g M z 0 F g.8.Z D S S $.$.F h d :.:.:.F F D Z k g 6 & - g k k Z M k D D h 1 6 F ;.A Z k f h ",
"S S S D h M g g z S :.D M M M M $.F r.S z S S S z Z M S Z S Z g h d Z S g z Z 0 = 8 8 6 d g 6 6 0 0 g u 9 9 - % d i u 9 1 = & @ ",
"s.A.$.D :.s.g.C.C.g.s.r.g.C.5.r.g.C.F.J.F.H.J.h.S.h.F Z g.F.S.S.L.K.J.L.J.H.L.J.F.S.s.s.s.G.K.J.S.S.F 9 g M s.F.d.8.8.;.:.8.:.S ",
"C.G.B g S.L.G.C.s.C.S.s.C.J.J.G.S.C.g.C.g.S.g.g.C.F.D :.F.G.S.K.C.d.;.d.S.S.S.G.G.G.S.S.G.C.S.C.C.S.S 8.K.I.L.L.G.K.P.L.L.I.L.L.",
"A.s.F M s.:.:.g.A.s.C.A.f.d.d.C.s.C.r.r.s.r.s.g.s.g.D :.C.:.g.:.8.d.d.s.s.C.C.d.d.d.s.:.F [ :.:.t.;.A :.b.C.C.C.C.d.d.C.V.b.C.x.",
"A ;.$.g M $.s.A.G.C.A.A.s.r.d.d.d.C.C.r.s.s.:.;.$.$.M B %.s.C.C.C.C.V.b.C.C.C.C.s.d.t.u.t.V.a.;.;.3.c ;.C.u.t.u.u.d.d.B.C.C.C.C.",
"M M M $.:.g.g.g.C.C.C.C.g.g.C.C.r.r.s.g.g.r.C.C.g.r.z z s.C.C.C.g.8.g.S.C.d.S.S.s.t.8.8.t.:.9.s.:.s.%.A t.t.d.d.a.9.a.d.t.9.;.9.",
"s.g 8 h S z Z $.S D $.:.M z D S S $.S S h g i Z z Z M S S 8.$.S g g z d 8 g Z z 9 9 9 f f h z S i 8 7 g u M A S h M g 9 9 9 0 i ",
"g z M z i u g g g u 9 g M D $.A S Z z z S S M D S F $.g.8.$.M z F j u z S g 6 8 8 ; ; ; @ * Z z g k g S :.:.F Z S 6 k d d g g 8 ",
"C.C.S.S.J.L.G.S.:.u $.P.L.J.G.J.K.K.F.K.L.h s.S.C.g.g.C.g.S.S.C.8.g g $.g.g.F.S.C.G.S.g.G.M z S.d.G.S.s.C.d.g.d.r.3 h s.d.g.G.J.",
"A.C.g.t.d.r.$.r.C.S $.d.r.g.S.S.K.S.S.C.s.g :.C.f.s.s.g.g.A.C.C.G.$.F C.g.g.F.S.G.S.G.G.G.$.M 5.C.;.;.:.t.:.8.s.d.M 8.C.t.g.t.s.",
"D r.t.5.r.D M :.r.D $.d.:.F s.8.;.s.t.:.;.i z D :.r.;.;.5.d.f.C.g.S S C.;.s.g.g.A.G.A.A.d.M #.t.M %.;.A A 8.9.;.%.i :.9.;.%.*.F ",
";.s.s.s.C.C.:.:.;.A S t.d.;.D S M M S $.M @ M :.#.:.:.F #.:.%.%.r.z M C.f.g.f.C.C.d.C.G.N.i A ;.;.V.B.C.b.C.x.b.%.i %.u.C.d.C.C.",
"t.s.5.:.r.C.G.A.G.B M F [ ;.;.;.D $.r.s.:.z g r.:.$.D F A M B S #.9 g r.s.s.s.s.r.s.:.B %.h M %.%.F F ;.:.t.9.s.F h F ;.:.r.A F ",
"$.z h M i 8 g D D S M D D M M k g j g g i M z g D S M j i g M S g M d X # i h z i 8 u u = ; i f 1 = r i 9 h g 7 i f 7 7 1 i i 8 ",
":.8.Z i D D F S z Z F $.:.$.r.g.g.C.r.5.:.g.g.s.F $.Z Z r.S.g.C.g.s.d.G.C.C.G.C.s.d.d.C.8.;.S.G.r.S M g S 5.s.:.S S r.r.$.S S r.",
"s.s.$.i g.C.C.8.r.r.g.g.C.S.S.C.C.r.r.s.A.f.s.t.r.C.z z g.s.s.t.d.s.t.C.C.s.C.d.C.s.s.s.C.d.d.t.S.K.:.z t.r.t.g.s.$.s.d.d.G.C.F ",
"F %.M h %.;.s.t.%.C.5.F d.C.N.N.%.t.d.t.s.x.u.t.;.t.g A :.F 5.;.F F F F %.9.A :.[ t.;.8.t.8.D 9.%.d.A f t.t.%.F ;.S F ;.;.5.%.A ",
"A ~ m 4 A t.5.t.C.d.C.C.N.u.-.u.s.u.t.d.x.V.s.N.d.5.l h d.5.F 3.A F F A [ 8.b.d.a.t.d.t.t.a.x.d.d.t.D h s.f.d.;.F %.F %.%.%.~ t.",
"S S m M ;.5.f.f.t.d.f.d.s.5.s.5.t.5.N.s.;.%.*.;.A :.1 i 5.%.:.%.[ ;.9.g.%.r.d.s.8.d.b.s.d.s.a.8.;.s.f 0 t.$.F :.%.t.t.t.;.s.9.a.",
"l h M B t.S z S $.z D $.$.5.;.:.:.D F A M M h h M M g i M M M #.r.8.s.r.;.A M F :.F M D D F M i k i 0 i h g M k M h g f i i i d ",
"g S M S h M z g i u u u z S S S M S z z h z z M S h D F h D :.:.F $.S D M k k Z S Z Z z Z g i 0 i 0 9 6 6 0 i j g 0 0 7 7 i i i ",
"C.A.S.C.C.d.g.C.r.M $.C.S.C.C.S.C.g.s.d.;.g z C.g.r.r.:.S Z F D u g C.F.s.G.J.C.S.C.S.8.k k D C.d.d.D D s.S.C.C.M h 8.d.t.t.t.t.",
";.;.%.;.5.r.:.:.:.h s.C.g.f.5.5.;.s.s.G.;.M t.F F s.$.s.d.Z M d.k 1 :.r.;.:.%.:.d.d.t.G.M A V.C.9.b.d.C.8.:.D a.f d F ;.u.b.x.V.",
"f.;.F S M B F ;.A i %.:.:.A F F s.9.%.s.*.M ;.:.[ ;.s.r.D D :.d.M 9 %.A [ M M A F [ :.3.V A u.D 9.;.u.3.*.t.C.d.h M a.3.*.*.*.*.",
"A A ~ -.%.A M %.F 3 M %.~ :.:.%.F *.;.*.~ c *.;.*.;.F %.:.;.3.d.f 9 :.D F D M D A M A [ 6 M d.t.t.9.8.;.8.b.s.:.h D D F A M M [ ",
"A %.#.F M A t.;.M 7 D ;.V D A M V D F A D A u.u.9.F :.8.s.B.u.C.F 8 t.:.F F :.8.C.F D F d M t.:.:.:.[ F :.s.:.F h h [ M k M F Z ",
"A M l A S M b D i 9 i g M 0 f f M h b F [ A F 9.%.8.F Z M Z Z A g i i M M F D g 1 1 1 ; d 8 i h 6 j $.k u 6 9 7 i M 9 9 g i 1 ; ",
"h h h z M $.Z h M h g M %.D %.:.:.r.s.t.%.:.9.t.8.:.F g 0 g h h h D D Z F $.h g Z S g h F k i u M i i D :.A M k D M D :.;.D F F ",
"C.r.g $.S.d.d.s.s.g.C.d.r.d.s.8.8.8.;.;.t.:.%.:.8.8.i h d.S.D.D.G.V.C.J.G.L.J.J.L.G.C.C.V.C.C.d.d.C.f M d.d.[ d.9.d.3.C.C.d.d.d.",
"S D M M Z Z h g M Z S S F Z M k g g i 9 k M M M z M 6 d :.:.;.d.t.9.t.t.;.3.t.9.;.3.t.3.:.3.%.3.;.:.g A u.u.a.t.;.F D :.F F [ D ",
"M s.k i S z s.8.S $.h g z M D F z z S D g S D $.Z Z 9 d 8.%.9.;.:.9.3.:.9.;.:.~ A :.:.:.-.;.;.%.D D k F D D %.~ F *.%.D [ [ *.C.",
"F %.f 0 S h z :.D S $.$.:.$.%.:.g.d.s.g.s.$.S S F D 0 M 9.%.3.9.t.:.t.;.;.;.;.;.%.%.%.[ %.-.%.t.s.%.M M :.%.F [ ~ *.3.*.*.u.u.3.",
"M M f 9 Z ;.M h B A F t.s.;.#.F #.%.F $.:.D F M A M 9 9 h A A P [ F A V A P *. . .*.*.*.*.*.*.~ F M w b V A ~ A <.*.A *.6.*.J V ",
"p 9 p 9 1 3 1 y 9 y f M l B M l i i i i y y i h i $ 3 f 1 < 1 = & 1 9 w < O $ & 1 3 7 w i 7 = . # 9 h p w w h c A ~ V M c c p w ",
"9 h i F %.M :.$.B M M D :.$.5.%.r.8.:.S i 9 u i i M k M [ A M i r & 9 F [ [ [ D 9.9.9.:.9.M f V ~ M c c c h M M i r i c M *.~ V ",
":.[ M A %.9.C.g.C.h #.s.s.g.s.d.C.C.S.G.s.9 M C.C.b.;.[ :.M D 9.a.i p :.a.a.w. .9.9.9. .*.c A G.B.x.u.Z.u.;.a.[ F 7 & A u.F ~ u.",
"N b c i i M %.S ;.f M s.#.$.S $.#.#.#.5.t.y M s.%.F %.M f b V b ~ b c *. .A A N n n N J ~ f N <.J V / A / N M M V M < 9 i h A V ",
"c f b b c c D F %.i M #.F A A M B B A #.A 9 a %.~ ~ V M f c M N ~ h c / J J A A V n N n V i p ~ V C V A A N V V V c 7 3 < 9 p p ",
"b N b f V V F A A M M M M M M M M F A ;.F 3 h %.F A h b h M A A M h M A N A A A b b x b M i q N N V J A J J V b b i 1 h x p 3 3 ",
"c f p i f M h h M h A $.A D F A ;.:.t.s.S 3 9 M M b M h M D ~ ~ [ h i c c f p c x r i 9 2 q $ w p i p p p p p f 9 < i i c f p r ",
"1 1 1 < = 6 r 9 - ; 3 8 0 u 0 i 1 - 1 ; 6 3 6 1 = = # = = r f b M g = 1 7 3 7 1 = < = = 7 9 9 w 2 7 2 w p h c f i c b f b c N M ",
"! ! i = i f f i M z M M Z F $.:.:.:.F M M Z %.F %.Z & # c [ 9.9.a.:.t.b.a.a.t.9.9.[ :.M A *.M p N c w x N b N b A A V <. .[ P A ",
"<.9.A p 3.B.F %.G.G.G.D.D.D.B.B.b.C.b.C.C.C.B.x.*.3.b h *.3.9.~ P P <.P V P N G G A n b x N b 2 v v 5 p s w e p e e s v x x s x ",
"c b x p V *.V ~ 3.3.3.*.3.3.*.u.3.u.u.;.3.u.3.<.3.3.M h ~ u.b p p f w w e s x x v v v s v N s q e s 2 p v s s s e s e q 5 , 5 e ",
"b A p i 3.u.M F ;.%.9.a.3.u.u.9.5.3.3.:.9.t.*.3.u.~ c i M b c p n e p N v x x v t t s q x s q q e q > p v v s s s e , 5 2 > q e ",
"D %.M 9 %.%.i D 9.%.%.%.3.3.<.3.;.3.:.*.:.:.*.:.~ ~ r p M r c N p v t w s n v x v v s s t e e e q 2 : w e e p e s p e q q 2 q w "
};
