/* XPM */
static char *a9dbb6036b734f399603c27a4fde04a1OV3ea1lq2x09lpJp[] = {
/* columns rows colors chars-per-pixel */
"64 64 109 2 ",
"   c #8E3B36",
".  c #8E3A38",
"X  c #923A36",
"o  c #953D39",
"O  c #993F3C",
"+  c #8E413E",
"@  c #94423D",
"#  c #9C433E",
"$  c #A4443D",
"%  c #AA473F",
"&  c #AC483E",
"*  c #944443",
"=  c #9C4543",
"-  c #974A46",
";  c #9C4946",
":  c #954C4A",
">  c #9D4D4B",
",  c #9B504D",
"<  c #A24641",
"1  c #A84744",
"2  c #A44A44",
"3  c #AC4C45",
"4  c #A34E4A",
"5  c #AA4E4A",
"6  c #B34E44",
"7  c #AE5046",
"8  c #A6514D",
"9  c #AD524C",
"0  c #B45146",
"q  c #BA5346",
"w  c #B4544B",
"e  c #BA564B",
"r  c #B6594D",
"t  c #BC5A4E",
"y  c #A45452",
"u  c #AB5552",
"i  c #AC5955",
"p  c #A75958",
"a  c #AD5C59",
"s  c #B35751",
"d  c #B85750",
"f  c #B45A54",
"g  c #BC5C53",
"h  c #B45E59",
"j  c #BA5F58",
"k  c #BE6156",
"l  c #B5625E",
"z  c #BC625C",
"x  c #AE6365",
"c  c #B56563",
"v  c #BE6964",
"b  c #B06668",
"n  c #B66969",
"m  c #BC6B6A",
"M  c #BE7070",
"N  c #C25C4E",
"B  c #C85F4F",
"V  c #C25E52",
"C  c #C8614F",
"Z  c #C46255",
"A  c #CA6555",
"S  c #CE6957",
"D  c #C3655B",
"F  c #C96659",
"G  c #C5695E",
"H  c #CD6A5D",
"J  c #D06D5E",
"K  c #D2715F",
"L  c #C16761",
"P  c #C46B64",
"I  c #C56C65",
"U  c #C46C66",
"Y  c #CC6B61",
"T  c #C96C63",
"R  c #CB6C63",
"E  c #CB6D63",
"W  c #C86C65",
"Q  c #C86F67",
"!  c #CC6F66",
"~  c #C06E6B",
"^  c #C56E69",
"/  c #C06E6C",
"(  c #C86F68",
")  c #D16E61",
"_  c #C87067",
"`  c #CD7065",
"'  c #CE7067",
"]  c #C5706A",
"[  c #C4706B",
"{  c #C3706C",
"}  c #C4726F",
"|  c #C97068",
" . c #CB726A",
".. c #CA726B",
"X. c #CB746B",
"o. c #CB736C",
"O. c #CA746C",
"+. c #CC766E",
"@. c #D17163",
"#. c #D1756A",
"$. c #D57A6D",
"%. c #D87B69",
"&. c #C27270",
"*. c #C37574",
"=. c #CD7A74",
"-. c #C97A79",
";. c #D17B73",
":. c #C7867B",
">. c #D5877C",
/* pixels */
"c c c n c c c ~ &.m * 9 ] P v U ] ~ ^ ] ] ^ ] U P U P s U } ~ ] } ] ^ ^ ^ ^ ^ P ^ O.| j 2 P | +.| | Q | ( ( Q Q Q U P j @ P P P ",
"c c c n m n m / } v * i ] P P P P P U U U P U U U Q U 1 P O._ X.| _ Q Q Q Q Q Q Q Q ! f @ U Y H T T T T T T T T G T Y j > P G G ",
"c c c n n v m ~ / v ; f ] P P P P U U U U U U U U U P 5 } O.U | | Q Q Q Q Q Q Q Q T ! f 9 _ T T T T T T T T T H G H H j f Q G G ",
"c n n n m / ~ ~ } { ; u ~ U U U P U U U U ^ U U U ( U u v O.Q | | ! ! Q Q Q Q Q Q T | f 8 Q T Q T T T T T T T T T T ! D 9 T H G ",
"a h h h h z z z c z # 4 z j j k k D P P G G P P D G Z s z D G G G G G G T H F F F F H 0 f Q F H F F F F A A Z Z Z V Z g s Z N V ",
": + X # @ - - > ; ; > x n y y h c z s 0 0 s h f k D P { *.^ v i h h f g q t g D P P D P -.^ g w 0 r r t N t 6 3 3 0 w r v h 9 5 ",
"c c * a m n m m ~ ~ ~ ~ } } ~ ~ / } v 5 v } P U ] ] | | | | | | | | +.z f +.| | o.| | +.+.| | Q Q U P P D ;.P L P ^ P P Q Q T P ",
"l c * ; v v P P U U ~ P P P P L L U z 5 h U U U U U U Q Q U ( ( Q Q | j f #.! Q ! T T T Q T T T H T T G 0 E F F F F F F D D D F ",
"l c + * v v v v ~ U P P P P L P P ^ l = c ^ U U ^ ^ Q Q Q Q Q Q Q ( | j s +.T T T T T T Q T H H H H H D 5 P F F F F F F F G G F ",
"c v * > ~ ~ U ~ ] ~ U U ~ P P P U | c O P | ^ | | | | | | | | | +.| #.z 5 +.| ' #.' ' ! ! T T T T T T G 9 Q Y F H H H H H H H H ",
"9 w o ; h h h j z k j k j g g g k D g ; c D Z Z Z D D D Z Z V g V Z Z 0 u D t g t g g Z Z V V V Z A Z V r G Z A Z V V V V t t t ",
"a y p b p ; , > 4 ; # $ 2 4 f l v z c m *.v L U U P P 0 e f j h h h f h n c s 9 9 9 8 2 9 9 s f j k s 0 z z r g k f 9 3 9 h w s ",
"v c v v v v v P P U h . l | ^ | U U | ( ( | +. .| | U # l +.Q | | ' Q D ' ' ' ' ' ' #.f P #.T T T T T T T T T Y T T Y j | ;.H T ",
"z z v z v v z z L P h X v | U T P T U ( Q Q Q T Q | P < z ! T T T T F Z T T T T T T ' r Z @.H H H H H H H H H H H F H j Q #.F H ",
"z z v v v v v P v U h o v | U U Q U U Q Q Q Q Q Q ' P < z ' T ! Q T T T T T T T T T ' s G ' H T T T T H H H H H H H H g P #.F T ",
"v P U P U P P U P | f O P | _ _ _ | | | | | | | | | T < P ' ! ' ' ' ' ! T ! ' ' ! ! @.g P @.T E T T T H E T T T T T T t G @.H T ",
"7 7 9 r w 0 9 0 0 0 $ u v t g g g t g V V N V g t e 0 5 P V V V V t t g V N e e t V N 0 g t t N V V t t N e e e e r e r j t 0 0 ",
"y y y 2 l a u u a a c M *.m P ~ v z h 9 g v z z z z z ^ } P P P z k z f 0 k z z z P P U U L P D D D D j j ^ z k k D D P P D k z ",
"v ^ c < ] ^ P U U U Q P P | Q Q | _ | 9 f | Q ' ' ' ' ' ! ' ' ' @.' @.Z 3 ' @.@.' ' ' ' ) ) @.T T T ) H k $.T ) ) T T H H H T T ",
"c P z # k P L P P P P P T P G T T T Q 5 w Q T T T T T T ' ! ' T T T @.Z 3 T T T T T T T T T T T H H H H r T T H H H T Y H H H H ",
"c U z # z U P P P P P P P P P T T T ' 9 f ' T Q Q ' ' ' ' ' ' ' ! T ' Z 3 ' ' T ' ' ! T T T T T H H T H s | T T H T T T T T T T ",
"v T l X z U P P P T T T T T T ! T T ' w f ! T T T ! T ' ! ' ' T T H J V 3 T H H H H H H H J J H H H H F r T H F F F H F F F A A ",
"5 9 # > l 9 3 2 2 2 3 0 t 9 9 3 2 3 3 < s s 9 w 0 w w e t g t g g e 0 3 f f 0 r r e t N V g V g r 0 6 0 k Z 0 6 6 3 3 6 q w w g ",
"c z c m ~ v z z l l 4 o v z l c c z n v ] U v P z P z 0 U U U U Q U P P U U P Q U _ P 0 G | T T T H H H T T T H H H G s U ! T T ",
"P P P P P T T U P ' z . U Q T ! ! ! ' ! T T T T T @.G 3 +.' @.@.' @.@.@.T @.@.@.) @.H s +.) H J H J J J H H J J H J J f T ) H H ",
"v v P P P L L P D T f o P P P T T T T T T T T T T ' D 3 ' ' ' ' ' T T T T T T T T @.H r ;.T T T H H H H H H H H H H H w T T H H ",
"v P U U U P P U P _ j = Q Q _ _ ' ' ' _ ' ' ' ' ' #.P % T #.' #.#.' @.@.' ' @.@.@.#.T g $.@.@.@.) ) ) @.) ) @.) ) @.) r H @.) ) ",
"j j k k k k j k k Z 0 2 Z j D G D G F F F A F A A F g < Z D F H F F A F F A A A A D V r H A Z A A A V Z A N t t t t t 5 g t t V ",
"8 4 # 3 9 8 4 4 9 8 8 c m f u 5 9 5 3 0 Z k j j z k f l c s s j k j j 0 q g f s w 9 9 v U z D D k k g 0 w h f s h s f z D h z Z ",
"v v 4 9 U P P P P U Q | | _ Q U U Q L 0 T +.' ' ' '  .' ' | | ' ' @.@.6 :.>.H @.@.@.@.@.) @.@.) ) ) @.D k $.) ) @.@.) J J J ) J ",
"k D 2 3 P D G G G G H G H T T T T ! G 3 H ' H T H H T T T ' T H H H T 3 v $.H J H T T J J H H H H H ) Z G $.H J J H H H H H H H ",
"z P 2 2 T G G P G G P G H T T T T ! k 3 D ' T E E E T T T T T T T T T r e @.T J H ' ) ) ) J H H H H ) Z D %.H J J J J H H H H H ",
"v P 2 2 U P T P T Q _ T T Q Q T Q ' D 1 Z ' T T ' ' @.' ' ' @.@.' ' @.e Z @.J @.J @.@.@.) ) J J J ) @.D Z J J J J J J J J J J H ",
"w w # 4 k r w g t f r t Z V g g V Z t s P Z V V t t g V Z V t t Z Z V r O.T N N V N e t A A V V N N N t Z Z e e N e 0 % 6 e g N ",
"a l l c n c a h n h u 4 t v z z z z P } =.^ ^ U D z z f q D z z U U P ( =.| U P P P z j q ' P G G D G G T Q P T T G G k 0 T _ T ",
"v P P G P P P P U T Q 9 w ' T T T T T H H H H H J ) @.t 0 ' @.@.@.@.@.) H T @.@.) @.@.H 6 H @.J J ) ) J J J J J ) ) @.H 6 J ) H ",
"z z z D D G D P G G G 3 9 T G H H H H T T H H H H H T t 0 ' T T ' ' ) T T T ) J J J @.F 3 F J J J H J H H H H H T H H F 3 T T H ",
"z z z D D G P T P P T 5 s _ G T T T T T T T T ' T T @.g f #.! ' ' @.@.@.) @.@.@.@.) @.F 6 H @.J J ) J J J J ) ) ) ) @.F r $.' T ",
"z z z D D D D G G G G 3 j H D F H H H H H H F H H H H e k @.H H H H H H H J J H H H J Z 6 A A A A A A A A A A A A A A N t J A Z ",
"2 3 s 8 0 f f f f r 0 9 l f r r w r g 0 r j j j d g Z j j j 0 r r 3 2 3 6 0 0 r r r 0 9 z z 9 0 0 6 3 e V g g r w w w s L Z r 0 ",
"h l v y 2 v v v v v U P U U U U U U U v s +.| | | | | ' _ | _ Q T G P k j ' H T T T T T ' ' T T Q T T j ' ' T T T T T T T T H H ",
"D z G 9 2 G D D D D G G H H H H H H H D 3 H H H J J H H J H @.@.J J K F e @.J J J J J J J J J ) J J @.t H J H J J J J H H H H H ",
"k k D 9 # D D D D D D G G G H G H G T D 1 H T H H H H H H H ' T H H ) Z e @.H H H H H J J H H H T H ) t H ) H H J J H H H H H H ",
"z k G i X D D D G G G G G T T T T T ' G 1 T ' T ' T T T T J @.@.J H @.D t @.@.@.) ) @.@.J ) ) ) @.@.@.t A @.J J ) ) J H H H H T ",
"g g k 3 o k g k Z Z Z D D Z D Z Z A D g 3 A A A F A A F A A A Z A A A N t A N A Z Z A A A A A V V Z B e V Z N N N N V Z V N V V ",
"l l i a n c h h u 5 4 7 j c z j k k h 9 f } | P D z P 0 e k h l v L z Z L P D Z D v L g N T L D j k D L U k j j j j D g N G z k ",
"c v v v P z P G D D G 7 k | T T Q U _ T T | ' T T T @.w r @.H T T T ' T H T H H J J @.Z g @.H ) ) ) T H ) ) ) J J J ) V g J H H ",
"g g k g k Z Z Z A D F 3 r F D F F F F F H F H H H H J 0 r J A H H S S H S S H H H H J V q J H H H H H H H H H H H H H g j J F H ",
"k k k k k k Z Z D Z D 3 f H G H F F H H H H H H H F H r Z @.F H H H H H H H H H H T @.V 0 @.H H H H H H H H H H H H H V G @.F H ",
"k k D Z k Z D D D D F 3 g H H H H H H H H H J H H H @.t N @.H ' ' ' @.T T T T T K @.@.Z t @.H H H H J J J H H H H H H V Z H A A ",
"0 0 0 w r r r r r 0 w 3 r t t t r r t t t r r r r w r 3 5 r 0 r g g t g V g t r r e t w k V r t t V t w w 0 0 0 3 0 w j z s f f ",
"a u i = s l l l l f i c v l l h h f f u f z f h f f s j z z j k z z D k k D k Z k k k D | P D D D G G g f ( Z D Z D D T T H D G ",
"j g Z = 9 D k Z Z Z A D D D D H H D H g t K H H H H H H H J J J J J J A t K H J J J J H S S H S S H J Z e J A S A A A A A A A A ",
"r t k = 7 k g V V V Z Z Z Z Z A A A F t 0 H A F A A A A A F H H H H H A e H H H H H H H H H S S H H H Z t H F F F F F F F F F F ",
"g j k ; 9 D g k Z Z Z A Z D D D D D F g r @.F F F F H H H H H H H H H A g J H H H H H H H H H H H H J A V J H H H H H H H H H H ",
"g g g < 9 g t g g g Z Z D Z Z A Z A A e 6 A Z A A A A F A A A A A A A N q A Z A A A A A Z Z Z V Z Z V e t Z V Z Z Z V t t N t t ",
"s j h i c z u u f f h s w z z z P D k z v v f f f j h r t z f f f s f f z U z s s f f 9 r z h f s f s f v L P P L L z f j L L k ",
"h z z c v v z z z z L u 9 ] P P P G G P T H G G H T Q f g T F F H H H H H H H F F F H j N J F H S H S H F A A F A A H t A H F A ",
"w r w t t t t t t t V 0 9 A V Z Z A D A Z A A A A A H 0 6 A A A A A A A A A A A A A J t 0 H A A A A A A A A A A A A A e N A Z A ",
"r r r t g g g g g g Z r w D Z D D Z D A Z Z A A A A F w 0 F A A F F F F F A A A F F J t 6 S A A A A A A A A A A A A A e t A Z Z ",
"r r t g g g g g Z Z D r 0 D D D D D D A A F F F F F H w 3 H A F F F H F H H F F H H J t % S A A A A A A A A A A A A A q e C N N ",
"3 7 7 0 w 0 0 9 0 0 w 2 < g r r r r r t t t t t t t t 0 j V t t g V g t N g g g r r r w h j 0 9 0 0 6 3 0 3 4 0 5 9 9 s L D j j ",
"p a i y # i y y y y y y c c h a f f h 9 % v c h h h z v ^ v v z P U P j r U P P L k k D P D j j k k k s v P k D D P D D P P P P ",
"r f g 7   j g g g g g g g g g j Z V D w X D D Z D D A Z Z Z A A A A H V & A Z A A A A A A A A A A A A t F H A A A A A Z N N Z Z "
};
