/* XPM */
static char *b634f8f45471498699d0ed45b18dda4enA6ThGlpyOrljn3g[] = {
/* columns rows colors chars-per-pixel */
"64 64 239 2 ",
"   c #B40202",
".  c #B0110D",
"X  c #B6131C",
"o  c #BD0B27",
"O  c #AB1B24",
"+  c #B51A23",
"@  c #B21D2C",
"#  c #BC1E2D",
"$  c #BC1E33",
"%  c #9F2E39",
"&  c #A92529",
"*  c #A52C2D",
"=  c #AC2C2E",
"-  c #B2252B",
";  c #B72628",
":  c #BD222C",
">  c #B42A2C",
",  c #A8302F",
"<  c #A72A35",
"1  c #AC2D33",
"2  c #B52536",
"3  c #BC2335",
"4  c #B32D32",
"5  c #BB2C34",
"6  c #BC253A",
"7  c #B52D3B",
"8  c #BB2C3C",
"9  c #AD3335",
"0  c #A53438",
"q  c #AC343C",
"w  c #A63A3C",
"e  c #AC3B3D",
"r  c #B43235",
"t  c #BB3235",
"y  c #B4353A",
"u  c #BA333B",
"i  c #B33A3D",
"p  c #BB393E",
"a  c #C10013",
"s  c #C30F2B",
"d  c #C51B2B",
"f  c #C31C34",
"g  c #C51C37",
"h  c #C22434",
"j  c #C52935",
"k  c #C3243C",
"l  c #C22C3B",
"z  c #C92D3D",
"x  c #C4323E",
"c  c #CA313D",
"v  c #C0383F",
"b  c #9C2E40",
"n  c #9A3B44",
"m  c #B92A41",
"M  c #BE2D43",
"N  c #A73440",
"B  c #AC3441",
"V  c #A43B44",
"C  c #AD3D42",
"Z  c #A23D4B",
"A  c #AD3E4A",
"S  c #B43442",
"D  c #BC3444",
"F  c #B33D43",
"G  c #BB3B44",
"H  c #B63448",
"J  c #BB3549",
"K  c #B43C4B",
"L  c #BC3C4A",
"P  c #BC3E53",
"I  c #C72745",
"U  c #C52C44",
"Y  c #CA2B43",
"T  c #CB2C4A",
"R  c #C33444",
"E  c #C93244",
"W  c #C23A45",
"Q  c #C4354A",
"!  c #CA344C",
"~  c #C43C4B",
"^  c #CA3A4C",
"/  c #C43E53",
"(  c #C93853",
")  c #CA3D52",
"_  c #98454B",
"`  c #9D434C",
"'  c #9E4451",
"]  c #934C51",
"[  c #9B4E52",
"{  c #9B555B",
"}  c #98565B",
"|  c #AC4245",
" . c #AC444A",
".. c #A3484D",
"X. c #AC4A4E",
"o. c #B34146",
"O. c #BA4146",
"+. c #B4444C",
"@. c #BB434C",
"#. c #B3484E",
"$. c #B8484E",
"%. c #AA4755",
"&. c #A44D54",
"*. c #AB4C54",
"=. c #B34552",
"-. c #BC4553",
";. c #B44B53",
":. c #BB4A54",
">. c #BD455B",
",. c #B54C5B",
"<. c #BC4C5B",
"1. c #A45055",
"2. c #AA5156",
"3. c #A3545A",
"4. c #AD545C",
"5. c #A2595E",
"6. c #AD595E",
"7. c #B55056",
"8. c #B95057",
"9. c #B4535C",
"0. c #BB535D",
"q. c #B35A5E",
"w. c #B74F60",
"e. c #BC4D61",
"r. c #AD5661",
"t. c #A45B62",
"y. c #AC5C63",
"u. c #A75F69",
"i. c #B45462",
"p. c #BC5463",
"a. c #B45B64",
"s. c #BB5B65",
"d. c #B65769",
"f. c #BB5669",
"g. c #B45D6C",
"h. c #BC5C6B",
"j. c #B75F70",
"k. c #BC5D71",
"l. c #9C666A",
"z. c #9D6D70",
"x. c #A36166",
"c. c #AA6265",
"v. c #A3636A",
"b. c #AC646B",
"n. c #A46A6E",
"m. c #AD696F",
"M. c #B46066",
"N. c #B4646C",
"B. c #B9646B",
"V. c #BB636D",
"C. c #B3696E",
"Z. c #AC6C73",
"A. c #AA6B74",
"S. c #B46572",
"D. c #BC6572",
"F. c #B46B74",
"G. c #BA6B74",
"H. c #B46E79",
"J. c #BB6C7A",
"K. c #A67276",
"L. c #AD7276",
"P. c #AD747B",
"I. c #A5787C",
"U. c #AA7A7D",
"Y. c #B37176",
"T. c #BA7177",
"R. c #B4747B",
"E. c #BB747C",
"W. c #B4797E",
"Q. c #BB787E",
"!. c #C2424D",
"~. c #C34353",
"^. c #CA4255",
"/. c #C34955",
"(. c #C54559",
"). c #CA455A",
"_. c #C44C5C",
"`. c #CA4A5D",
"'. c #C3535D",
"]. c #C8555F",
"[. c #C04760",
"{. c #C34E61",
"}. c #CB4C61",
"|. c #C35463",
" X c #CA5365",
".X c #C25A65",
"XX c #C95A66",
"oX c #C55669",
"OX c #CB5469",
"+X c #C35C6B",
"@X c #CA5C6B",
"#X c #C45F71",
"$X c #C3626E",
"%X c #C7636D",
"&X c #C36573",
"*X c #CA6473",
"=X c #C26A75",
"-X c #CA6A76",
";X c #C86779",
":X c #C36D7B",
">X c #CB6C7B",
",X c #C3727D",
"<X c #CA717E",
"1X c #C0797F",
"2X c #A97A81",
"3X c #AE7B83",
"4X c #B57681",
"5X c #BB7581",
"6X c #B47C83",
"7X c #BB7B83",
"8X c #B87E89",
"9X c #C37582",
"0X c #CA7682",
"qX c #C37A85",
"wX c #C97A86",
"eX c #C37E8A",
"rX c #C97E89",
"tX c #9F8584",
"yX c #AB8285",
"uX c #AE838B",
"iX c #A98689",
"pX c #B58186",
"aX c #BA8187",
"sX c #B4848B",
"dX c #BB848B",
"fX c #B58A8F",
"gX c #BC898E",
"hX c #BB8690",
"jX c #B48B92",
"kX c #BC8B92",
"lX c #AF9298",
"zX c #B69299",
"xX c #C3828C",
"cX c #C8828C",
"vX c #C48993",
"bX c #C78994",
"nX c #C98B95",
"mX c #C5929A",
"MX c #C79BA3",
/* pixels */
"g.g.H.H.g.b.S.D.D.S.G.S.G.S.S.F.S.S.S.S.H.F.a.H.i.,.,.,.>.,.,.:.,.<.=.9.9.=.=.+.y.N.,.i.g.g.j.J.J.7X5XJ.J.S.g.h.h.h.P.iXS.V.&XD.",
"h.d.g.g.i.t.J.E.7XdX7XJ.G.S.D.J.G.J.D.D.S.p.N.N.,.p.,.,.,.,.,.,.,.,.=.i.,.=.=.K K.m.=.i.i.4.;.;.,.9.*.%.%.%. .u.a.=.v.tX&.{ 3.4.",
"b b Z Z 0 3.3.Z ' ' ' ` ` V Z ..Z ` Z Z Z % ..5...{ [ % ` ' n _ { x.5.3.3.3.3.6.Z.x.5.{ { { { { [ _ { l.z.l.{ { { 3.5.l.3.5.x.I.",
"yXU.A.A.P.pXA.L.U.U.K.n.A.u.K.Z.A.U.P.Z.Y.6XpXaXdXsXR.R.pX6XR.6XfXW.R.R.R.W.R.R.Y.F.F.N.R.H.R.R.J.6XjX6X6X8XR.G.J.G.F.4XR.J.5X5X",
"R.R.G.J.J.R.G.R.7XG.G.J.G.sXkXJ.D.G.D.g.h.h.f.p.<.,.<.J.g.p.h.G.S.,.>.,.<.p.p.e.p.p.f.h.f.p.e.<.,.b.L.i.d.d.d.d.h.g.d.S.S.g.S.S.",
"p.h.g.h.d.g.e.e.>.e.p.f.,.Z.R.P >.P P P P >.e.<.>.>.>.-.>.f.0.h.D.g.e.e.f.|.{.+Xs.e.p.p.0.,.,.0.0.Z.8Xk.g.g.g.h.h.h.d.i.g.D.V.D.",
"k.k.h.h.h.h.h.k.h.h.f.h.h.Z.E.~.oX#X&X&X&X:X:X{.{.<.f.f.h.0.@.G.E.p.0.e.|.oXp.p.p.0.0.0.<.<.<.p.:.b.R.i.i.i.i.a.i.i.i.i.i.y.g.i.",
"=.,.i.g.i.N.u.m.F.S.S.S.=.9.m.%.%.b.n.n.n.x.' n ` ` { { { ..C a.t...5.1.&.3.t.{ _ _ _ [ ` &.[ [ n c.{ { { ] _ _ _ n n { { l.l.z.",
"I.K.U.U.K.K.U.yX2X2X2XyXU.gXsXW.pX6X8X7XJ.g.i.Y.L.W.L.N.F.G.T.7XQ.7X7XJ.N.C.Z.J.a.4X6XR.G.E.R.6XR.R.R.7XQ.R.E.5X7X7X4XjXG.D.J.G.",
":XD.J.eXgX8XqX9X:X:X&X+X+X+X+XoXh.|.|.|.(./.D.J.<.0.-.<._._.<.-.-.,.<.-.@.J V.5Xg.8XJ.D.V.V.h.h.h.h.g.g.s.s.h.s.D.6X7X5Xg.f.h.g.",
"J.J.h.h.V.F.h.>.[.[.(.~.P / / ~.(.(.~.~.~.~.T.D.~.{.{._.~.|.+XoX+Xh.+X{.|.{.&XG.P.7X+XD.&X+X&X+Xp.+Xh.s.h.s.h.s.D.4XD.5X5XJ.J.J.",
"xXxXqX:Xs.G.#X{.{.{.{.(.(.(.{.`.}.OX`.(.(.~.,X=X(.@XoX(.{.|.|.oX_._.<.<._.|.<.0.6X6X<.+XoX+X&X$X&X&X.X.X@Xp.h.f.J.6XX.I.D.D.V.g.",
"=.=.=.;.S r.,.K K m K B B 0 V  .V A q < < O ,.*.A %.B B B N q q q V V V q C 9 S V.c.%.*.4.r.4.4.y.*.%.3.t.t.v.t.z.l.t.l.{ 5.[ 3.",
"t.t.3.t.n.W.U.K.U.L.Y.Y.W.J.S.R.Y.R.4X8XdXgXgXpXpX6XW.6XR.W.dXE.F.kXkXgXgXhX7XgXmXhXkXkXgX6X6XW.Y.V.5X3X6XpX6X6XpX6X4X4XH.H.R.R.",
"vXeXeXeXxXxXqXqXqXqXqXqXcX0X9XxX<X>X;X:X=X$X&X+XoX|.|.|._.{.oX+XG.&X|.'.&X&X|..Xp.s.s.s.s.s.0.p..Xh.8XkXJ.f.h.h.h.s.s.S.V.k.S.D.",
"f.e.<.>.>.>.e.>.~.|./ / Q (.p.|.( ( ( ( ) / _.(.)./ ^./ / / ~ J V.+X_._.~ ^./ ~._.(._./.<.:._.0..Xh.7XdXS.s.h.V.h.h.V.h.V.D.J.J.",
"+X{.{._.|.+XoX}.oX@X(.`.+X@X_.|.).}.}.OX XOXOXOX X`.`.`.`.^.!.<.7X+X_._._._._.|._._._._._._.'.'.'.B.hXdXD.$Xh.h.&X=XD.D.J.5X5X:X",
"G.h.w.,.,.a.6.,.H 7 H -.-.-.K J D M M 6 m J 7 S 7 u 7 2 2 @ - C W.=.S S q C +.q +.K #.;.#.X.%.V C 6.A.x.1.&...` { t.t.3.t.x.t.&.",
"n.u.I.L.y.U.L.c.b.m.Z.Z.m.Z.Z.L.L.L.L.W.W.9.a.W.W.6X6XW.F.N.G.Q.Q.W.Y.Y.J.R.pXY.F.6XR.R.W.6XpXsXjXdX6XQ.6XpXpX6XsXQ.a.jXzXfXpX6X",
":X&XrXqX,XmXvXcXcXxXrX0XrXwXrXcXxXcXwXwXrX&XqXrX0X*X-X-X*X@X@X;X*X*X*X+X@X$X;X-XxXqX_.|..X%X=X9XeX9X$X.XD.G.D.J.5XqX2XjXE.5XG.J.",
"&X&X=X$XV.qX9X:X=X@X{.(.(.`.).).}.OXoX@X0X=XJ.;XoX`.).) ^ ) ) ).^.) ~.(._._.XX.XG.9X+X|._.+X&XG.E.h.|.=X9X:XJ.E.J.h.v.H.s.s.s.s.",
"0X:X@XoXV.qX<X;X*XOXOXOXOX}.).).).).).OX>X+XR.@X}.`.^.^ ~ ) (.^.) ^.^.).^.`._.@.E.qX@X@X$X=X=X=X=X&X&X:X<X<X:X=X=XV.2X7Xh.D.$XD.",
"=.H H 2 i.D.h.s.f.+X+X$X$Xs./ k Q / / ,.<.  Y.f.L J D -.P p.<.<.s.-.,.i.s.s.-.8 R.a.7 K +.e q < & 9 1 q B q q C C q yXL.=.a.i.9.",
"R.6X6X6X8XW.Y.Y.Y.Y.F.C.N.i.=.J.E.R.6XpXW.E.dXH.S.Y.R.Q.aX8X7XN.R.Q.R.Q.R.R.R.7XqXaXdX6XY.Y.F.R.R.m.6XR.R.pXsX3X6X6XjXyX3XU.P.3X",
"vXMXMXmXMXmXnXnXwX<X>X>X0X;X;XnX0X>XwX0X0X0X<X*X@X>X@XOX-X*X@X+XqX`.|.*X@X+X$X&X<XvXxX%X@Xh.$X=XqXJ.7XG.V.,X:XD.V.J.D.D.J.J.G.J.",
":X#X&X9XqX:X&X>X:X<X0X;X}.Q S.}.! ) T T I I T U ! ! Q R I I E _.+X/ (.^.(._.'._.&X&X~.~ _._.'.:.|.,.i.h.<.,.p.$XV.h.h.V.D.D.D.h.",
",X&X*X>X>X;X;X>X;X>X>X*XOX^.D. X XOX`.}.).).).^.^.^.`.).^.).^.|.+X X`.}.XXOX_.L <._. XXXXX|.|.'.'.a.J.&X=X:X:X&X:X:X<X9XJ.J.,X9X",
"P P D H J $ M M m M k s f o h.Q g k g k I k U g k k g 3 3 2 o G 0.J # 2 > + X X 4.y - 5 8 u u 5 4 9.G.=.a.=.+.+.;.;.9.8.%.,.+.;.",
"6XY.R.R.F.F.R.S.S.N.G.Q.Q.,XvX7XQ.Q.E.E.T.V.s.G.G.Q.7XD.h.J.7X,X=XV.V.h.h.D.V.$XV.N.N.F.R.S.Z.W.R.gX6X6X3XA.m.b.y.r.4.m.3XK.b.r.",
"=X&X>X0XrXnXrX>X>X-X>X<X-X0X<X>XcX>X>X>X>X>XcXnX>X*X*XXXXX*X>X&XXX@X@X@X@X%XXX$XqX0X<X=X$X$X:XqXD.&X=X&X$X$X&X&X+X>X7X7Xh.V.h.s.",
"/ / (.).<.+XT ).}.OXOX}.}.) ! ! ! T T Y Y I ;X>X^.).}.}.).).) ! ) )./ ~.~ ^ ~ W p.|.@.~ ~ ~ W D @.!.~ !.W L @.'.|.$XJ.N.-.0.:.0.",
"(.`.}.`./.-.R ^.`.).).^.) E j E ^ ^ ^ ^ c Y :X*X! ) ^.^.) ^ ^ ^ ^ ^ ^ ~.~ !.!./.&X|././././.~./.~.!.!.!.!.~.@.:.'.'.D.V.:.0.8.8.",
"J J L D 8 ~.J D 3 $ o + : . 4 8 o 3 k f h a p..Xf ^ R h k U k k l k l 8 D L L l '.p.D G @.G K @.:.:.:.-.,.:.:.:.8.y i.N.S F $.o.",
"6XR.R.J.Q.Q.Q.Q.J.S.G.V.h.V.+XV.G.G.B.B.B.V.$XJ.N.a.9.s.G.G.E.G.N.Y.N.g.i.N.G.T.9XR.Q.E.R.Q.F.R.R.R.6X6X4X6X6XR.Y.R.R.6X6X6XR.H.",
":X0XeXbXrXqX:X:X>X>X>X*XOX@X:XcX-X%XXX%XXXXX X X].'._.].].%X,X%XrX,X|..X.X.Xs.V.V.s.s.|.s.s.0.s.p.V.V.0.0.s.s.s.s.B.B.g.s.h.0.7.",
"~.(.oX#X}.).).Q ! ! z z k h -.).g Y U f d d d d d k j d h d s f <.E k R R x R L R D L L L L L L G F F D y G G G G O.@.@.+.F F o.",
"P -.P ~.(.^.) ^ ! ! E E E E @.!.E E c c z z c j z E E z c j x l |.~.~ ).(.`._._.'.'./.!.!.!.~.!.L +.g.-.@.:.0.0.0.p.+X$X$X$Xh.h.",
",.-.K K S J R R R R l l R # :./.~ W l l x j : W x l l 5 u W W J s.:.~ @.@.@.-.@.G G G G G G i i F | S.9.F F F F F i y i o.+.+.+.",
"J.s.E.qXJ.5X,X:X=X=X:XV.V.=X,X,X$XV.T.V.V.$XoX,X,X=X$X=X=XD.D.V.D.G.h.B.B.s.g.s.g.G.S.J.G.C.G.R.Q.R.W.Y.Z.P.Z.b.b.b.b.m.S.b.N.N.",
"~.~.~ _.=X$X^.Q ~ ) ).^.(.OX^.^.^ ) ^.Q ^ ^ :.~ z Q !.^.^.(./.W (./.~./._./.D @.+X@X_.~.s.p.@.:.@.<.0.:.-.:.:.9.$.o.a.R.p.s.s.s.",
"/ ~.~ ~ ~ oX^.^.).).`.`.`.).).).).`.(.(./ l :._.U ~ ~ ) (.(.(.(.oX|._._./.!.L G 0.oX<.-.p.0.@.:.:.:.<.8.:.@.@.@.$.$.2.Z.,.,.9.7.",
"U ! ~ ~ -.h.) ) ) ) ^.^ ^ ^ ^ ^ ^ ^ ^ Q x l i./.Y ~ ^ ^ ~ ~.~ _._.~.!.W W v t 5 G.0.J @.@.L @.:.8.8.<.:.:.:.:.0.0.7.y.P.0.,.7.8.",
"B.B.9.7.F ,.G F y u u 5 4 5 5 : u u y G u G a.0.@.@.G @.G i S $.F $.;.o.o.#.$.r N.;.F o.+.o.+.=.;.+.C #.X. .|  .%.C %.b.* w C C ",
"Q.xXmXgXmXmXhXaX7XxXxXeXxXqX9XxXxXxXxXxXxXvXmXvXcXcXxXxX,X,XxXqXQ.xX,X7XeXqXqXvXhXdXdXdXhXdXdXpXR.W.R.R.6X4X6XpXpX6XhXsX6XR.R.F.",
"J _.oX+X;X=XoX_./._./.~ ~ ~ Q $X_.R ~.W R l 3 l l Q R R l x W / <.|.: u u 5 5 @.:.G G @.:.$.:.0.7.0.a.0.:.$.+.;.:.,.7.9.9.;.7.9.",
"f.h.+XoX_._._./.~.~.!.D R x l oX~ l /.R u W W W x x R W W W W ~.p..Xv G G p G p t p G p u u y y F = *.#.y i i y y y y i i C C C ",
"H 8 6 k M R M l l l h 3 h d f h.W Q |.<.-./.~ h f d j l j l R k ,.s.l W D u u G @.@.L -.:.@.-.:.:.+.N.o.r i i y i i F o.C C C C ",
"Y.F.N.M.M.a.g.s.s.a.a.s.s.h.B.J.s.g.E.7XQ.G.s.a.N.B.g.g.s.s.B.M.S.C.q.N.N.G.V.N.9.#.q.i.9.i.a.a.i.a.Y.a.7.7.X. .X. .e e | | e e ",
"7X7X7X7XaXkXQ.7XQ.dX8XQ.Q.E.Q.Q.J.,XqXQ.Q.1XqXgX7XQ.T.E.,XV.G.G.J.D.B.B.G.V.B.V.N.zX8XR.6XF.S.b.y.S.6X6XY.F.Y.N.Z.F.r.P.Y.N.y.6.",
"@ @ @ 2 H =.3 8 8 D 8 6 # 3 6 3 3 8 6 : : X :.<.# 3 G u 5 : : u 5 u 5 > 5 ; 5 8 S.kXD S o.$.$.F F y 4 9 y y F o.e o.*.P.#.| | | ",
"C F K F B 9.+.;.;.:.@.@.L L L W L L L L G u s..Xu @.L p p p W O.G G @.F i i O.G P.B.> +.o.@.$.+.o.o.o.o.o.o.o.#.| | &.n.X.w e C ",
"1 q q & q a.A N.,.@ 7 2 3 8 5 5 u 8 D u 5 3 :.8.# u 5 5 u 5 u 5 r r G S i r i > P.q.@ i 9 9 = 9 4 r i r > r e = 9 = w I.| 1 e C ",
"6X6X6XR.dXkXY.F.Y.W.R.R.R.R.S.F.R.F.C.R.E.J.7X7XE.J.E.J.T.7X8XQ.R.6XR.F.F.F.R.R.dXW.S.C.Z.Y.Y.F.S.M.C.R.R.F.F.F.S.N.P.lXb.y.y.6.",
"9.;.*.4.*.*.4.9.9.a.i.i.g.s.N.D.@.:.:.s.g.7.7.s.9.9.9.a.g.B.S.T.V.G.7.,.;.7.9.7.9.9.7.;.#.:.;.;.9.9.8XY.b.y.a.N.N.S.G.S.S.S.N.N.",
"1 1 = = < < * & & O O X O > C ;.D G u y :.u > > ; ; - - ; ; >   o.7.y > r r r r y i o.F i q i F 9 C *.9 & = 9 9 9 q q C e 9 9 9 ",
"7 7 u 4 1 F A C q y 1 M.$.4 ;.g.u y r y y r u u t t r y r y G u o.J.:.O.@.+.+.$.$.,.9.;.#.$.:.+.o.| V e e e e e e C C | C | w e ",
"g.a.9.9.q.4.,.*.X.| +.9.o.= | 9.F o.o.o.C | i r r i o.F F o.$.i c.pXF i r y e q 9 q | X.X.C | e q | 1. .e e e e q 9 1 , * * * , ",
"6X6X6X6X6X6XkXsXpXjXsXY.R.R.8XzXjXgXgXsXpXR.T.E.pX6XG.Q.7XQ.R.6XkXR.C.C.Z.Y.Z.L.m.3XuXlXuXR.6X6X6X6XjXuX3XP.Z.Z.Z.P.P.n.A.Z.Z.t.",
"K K H 2 7 +.9.+.;.=.K :.$.F 0.a.i F F S F F :.N.s.u y i y r r i o.r i r i y y i | F.*.C q i F +.| e 9 e | | |  .X.6.N.y.6.4.r.m.",
"V.s.,.7.:. .;.$.+.F F i i y r 4 i i F F F o.o.6.$.r i i i y i y r i i i y y y 9 | N.F q o.C i F C o.;.#.o.#.o.C e q < &.V | 0 C ",
"+.F u S 4 *.r.7 y 4 4 > - - y 4 4 i i 4 4 >   y.$.O r 4 r r y y y y y r r r r r C 6.F +.o.F o.o.+.$.9.a.#.#.;.#.| | V A.*.C | | ",
"c.c.c.6.*.x.P.y.y.6.4.4.6.6.X.6.4.4.2.4.c.a.N.6XZ.y.y.6.X.2.4.|  .X.X.*.*.*.| | 1.t.0 w w w w w | w * 0 w * * , & & V yX..w V 0 ",
"uXuXuXsXzXjX6X6X6X6X6X3XuX6Xb.5XJ.S.S.F.F.R.R.hX6XR.R.F.kXzXY.a.3XY.Z.Z.3X2X6X3X4X6XP.L.6X6X6X3X3XZ.P.uX3XsXsXyX3X3XfXjX3X3X3XP.",
"1 = & 9 | C q C 1 1 = = = = r.| 1 9 9 1 q y 1 i = 1 = 9 F i > i 6.o.C q q L.#.= q e | | | F o.#.C X.Z.*.e X.*.X.*.2.%. .X.*.2.*."
};
