/* XPM */
static char *ab78a1abfd184ba5851fca2df53746b7UzaAygGmdFFlP3vh[] = {
/* columns rows colors chars-per-pixel */
"64 64 63 1 ",
"  c #CB8257",
". c #C8835B",
"X c #CD885E",
"o c #D48255",
"O c #D88656",
"+ c #D18358",
"@ c #D5895E",
"# c #DC8C5D",
"$ c #DF905F",
"% c #E28E5E",
"& c #E2905F",
"* c #CF8B62",
"= c #D58D62",
"- c #DB8E62",
"; c #D59167",
": c #DD9264",
"> c #D59369",
", c #DD956A",
"< c #DE996D",
"1 c #DD9B72",
"2 c #E08E61",
"3 c #E49465",
"4 c #EA9666",
"5 c #E69866",
"6 c #EC9967",
"7 c #E39669",
"8 c #E99769",
"9 c #E59A6C",
"0 c #EC9C6C",
"q c #EC9C6F",
"w c #F09D6D",
"e c #E19A70",
"r c #E79B70",
"t c #E49D71",
"y c #E79F73",
"u c #E89C71",
"i c #EB9C70",
"p c #ED9D72",
"a c #ED9F74",
"s c #F09F71",
"d c #EEA06F",
"f c #F0A06F",
"g c #E3A277",
"h c #E4A075",
"j c #E6A174",
"k c #EBA073",
"l c #EFA172",
"z c #E9A275",
"x c #ECA376",
"c c #EEA377",
"v c #EBA477",
"b c #ECA575",
"n c #E7A379",
"m c #E7A479",
"M c #EAA67A",
"N c #EEA578",
"B c #EDA97C",
"V c #F0A273",
"C c #F0A678",
"Z c #F0A679",
"A c #F1A97A",
"S c #F3AE7F",
"D c #EDAB82",
/* pixels */
"0000000900000u00u3rcpppuupppu0puppupu0037pu0000000000000000055l0",
"00008000000000ppV7:cpuppp0pp0pppppppplp@3pp00p00000p0000000077pp",
"0008000900upuutt9@:0999ruuuu9ttuutuuuuu-tl9909900000uupppp0lpz98",
"kkkt9977977-3#=-o@09==:,<71==,=== .@@*#=M9,;>;1979,<777;;;33;tt9",
"zzkbzj9tN0u97lcccZccNzbckk0t,=7,7enr,g9t09pzbbcuz; 9t0099tttjk9z",
"88800827p0ppppccp00000pplll0,<ucccccccccucupppppp+,cplllllpl00p0",
"0000003@pu000pplpppppllplpp03kcppppapcpplppppp0p09Sc0p0p0ppp0p00",
"080000#=ZVVVVcplpVZZVZZZZZl0tzpVcVVcclplcllpllllp0kll0p0pp0ppVl0",
"80879927,*;;;0uu9,,,799:;9uuu99t9eeuzukt9tllu99590bb0l009ub93-:7",
"tt9ttt7011e,199::;=::5:;>9000uz9tjMj,z977<;,<9:99bczztjMzBzvz7jv",
"u9uuu0rucZNNSNczvcblblbAZl0uppluzcclcl935ukcllllp00000l000004ll8",
"p0upppppp0000pp00570pllppplclpplpppppp80lp000000p000pp0p0000400l",
"p00uuuupppuppppp0800p0pll0pppppppppp0p88bl0pp000p00pllpppVps000V",
"00p0upppp00ppppppullllll0llpuupp0lp00090cuullpllpp0k0lpp998994l9",
"=:@===;#:7<,,,,970cvj90:;##;9<799979,<kbb97::99993:9t99:,9-:905:",
"MttMvB<tMMjzzjzzuNcu7tukvMmM99zzMkjzkMvbbkvjj399939z9tzkbzMBbNtv",
"uuuuupuzc00upppppppppplcpplp50lppllpp0000000lll0040d800888868808",
"008008000pp00pppppplppp0p0p05V00p00p0plpp00000000550080008808888",
"p0pppp0:ucppVlplpplllVVVVVV0uAVVVVVlplVVlpdd0dVlV80bl000w0ww0000",
"333337=:k997770999099,777777887<933790979998093385zz579,::553:=:",
"*X=;=*=u5@%#*;3:7333#:::,77383799,9970338jk99999908::999t909::7j",
"ccZZcccu0000uccccuk30VlVVVVVpplllcVlll00llllVVZdd00lVd00dVff80Vf",
"00000000p0ppp0ppp057Vpplppppllppllplpl00bl000000000d00ll000040l0",
"00000p00000ppplpp730lpppp0lllVVVVclllVp8lcVVVVlVVVllppl0000p80l0",
"7000000000p0pu0007t9llll0l008909790u088lZ993:75738000plp00800kl9",
"-=,3:,7=,tt9997=>99zjzk90k99,:;=:<988=*7k999jzukm950zzclcck0ubbj",
"utyzvNztDvuczzzzNuuplcbclklk350lbll00bBu0cllZcblb00vlup0lllllld0",
"0000000u080000080p0000dl0l0l&0ZlllllllVVll0lpp00040l00p0p0000000",
"00000007up000000ppppp0l00ll08uVllVlVlVlllllllVllV40cpl0dd0l00000",
"00000s09c0p0000lppppppllkkul50zulpuuuu0llll000plu50clp0lllp0p000",
":3589:=t7:=5%##%57:::-@@@@-=@3::@@=,=*>3:533:::OO2l977:::,7:3533",
"tM9tt;1ut7007t9tt7::7tuzzvbkznBMtNBbzBj90zkvvbkkBMb900djjzll9=39",
"pczccNcczulkczzNM9jt0ccccpplllplp0p0p0080l0d00dlld00l00dld00&:kl",
"888000008000000088030p000000000000000p00cl0dd0000000000000004ZAp",
"0080p000008000000033pp0p000ps00plpppll0uclfVld000000f0d0dl000cbl",
"888800880588878808300885558777909888889u00998088888855557979lVl8",
"::##:333333:73335:0p9999t9ut<<t0999999jl057355353#$9799kjzujllk9",
"009tut99757088008898pplcclcp0kccblccZcV000llllllp50dVVfdllVl000l",
"808808885800800000000000008835lp0pl0plpVllpllpldd8ld000000000000",
"88808883700000000000p0p000005lVVllVllllVlllllllVV0bZVVVVplld0pll",
"88888805008880008800800900pp0l00000u0000000088885355333355599955",
"343-333:0ut09bck9t8799,<9885703@:533##::5599985339k0395985903#:9",
"u09tkkuzk00plppbBB30lllcl088000bl0l00ll80blpl00lVd0lVlVldll089bl",
"080088888888088003#00p00plpllppllllpp000bl00000000000000000080dd",
"8808888888888000045blpppppplpplpllp00p0lZVd00dd0d00000dw0000850V",
"888w00888888000008:ulllplllplllldlldllll0898985085888855800835b9",
"3:,-;333700008457%709988888088884535555563=:::33:::39:#700840k0:",
"3:7::95858854437780ul0000kll0:54485388800lbllld00dlblbbbdddldd0V",
"688888869p000ppppllll0llpllV33lllllllVlp000000008450w88888886688",
"888808880pp00p0lp0pppll0pppV39lp00000000p00p00w00550008088880000",
"6888888000VspspVp0V00Vpu000p8pc0800000000000085688ld668888000000",
"35880000743%533%353335:=#:3:3lBzuukblMz95895599pllb8899009dbb99l",
"ktu9999980::359999548899zll0kzlbbMvzbBM9lbNbbBNbblllblbllbld5#9k",
"0800080000w0000p0059000p000000800008884%ll00000660800668666w%4l6",
"6668888888888008883000000000000000000083l000008666808880088848w6",
"88888w088880000008800Vw0000dw000fd0w00038000000000088888868068Vw",
"544488888434888794805=333333373:53:955-%w8>:##%3&%%&3&#:3335308=",
"-:37::337090999977003,<97,793:%3333###&60530000ld53ll8dl08854448",
"84880l89l0000000004480000ll05380000800080800000006dl0w0888888888",
"6666886f06446888868864668086%9k0000000000000000000f0888888888886",
"666688888888888088www880008w&50d0000000000000000046d088088w88w88",
"4446888888864888448858575553@5553-3555399800885088d0955445555554",
"-####:##3#%%3353##3#:#=:##@:3753:99:3999#:5333553554535389989933",
"000000905#388008395%490000005008d000l00%#08805888646668864684O&8"
};
